<svg xmlns="http://www.w3.org/2000/svg" width="64" height="64" viewBox="0 0 64 64">
  <defs>
    <linearGradient id="bg" x1="0" y1="0" x2="64" y2="64" gradientUnits="userSpaceOnUse">
      <stop offset="0" stop-color="#2563eb"/>
      <stop offset="1" stop-color="#7c3aed"/>
    </linearGradient>
  </defs>
  <rect width="64" height="64" rx="16" fill="url(#bg)"/>
  <path fill="#fff" d="M14.6 20.3c-1.5-.5-1.9 1.3-1 2l10.7 8.2-3.7 6.4-6.5-.9c-1.2-.2-1.8 1.3-.8 2l6.3 4.4 2.3 7.3c.4 1.2 2 1.1 2.3-.1l1.6-6.3 7.3.9c1.2.1 1.8-1.4.8-2.1l-5.9-4.3 3.7-6.4 13 3.4c1.1.3 1.9-1 1.2-1.9l-4.5-5.4c-.9-1.1-2.3-1.6-3.7-1.4l-6.7 1.1-14.4-7z" transform="rotate(8 32 32)"/>
</svg>
